name rise31.4854peak64.571fall78.6902.mot
datacolumns 19
datarows 36
range 12.18495200000000 12.24329200000000
endheader
time	ground_force1_vx	ground_force1_vy	ground_force1_vz	ground_force1_px	ground_force1_py	ground_force1_pz	ground_force2_vx	ground_force2_vy	ground_force2_vz	ground_force2_px	ground_force2_py	ground_force2_pz	ground_torque1_x	ground_torque1_y	ground_torque1_z	ground_torque2_x	ground_torque2_y	ground_torque2_z	
12.18495200000000	62.68064500000000	774.22411099999999	50.09558000000000	0.31520800000000	0.00000000000000	0.09224600000000	0.00000000000000	0.00000000000000	0.00000000000000	0.00000000000000	0.00000000000000	0.00000000000000	0.00000000000000	19.32526300000000	0.00000000000000	0.00000000000000	0.00000000000000	0.00000000000000	
12.18662900000000	62.04261700000000	776.86073999999996	50.23245500000000	0.31432000000000	0.00000000000000	0.09224100000000	0.00000000000000	0.00000000000000	0.00000000000000	0.00000000000000	0.00000000000000	0.00000000000000	0.00000000000000	19.39753900000000	0.00000000000000	0.00000000000000	0.00000000000000	0.00000000000000	
12.18829000000000	61.40587300000000	779.36913700000002	50.37233300000000	0.31345900000000	0.00000000000000	0.09223600000000	0.00000000000000	0.00000000000000	0.00000000000000	0.00000000000000	0.00000000000000	0.00000000000000	0.00000000000000	19.47289700000000	0.00000000000000	0.00000000000000	0.00000000000000	0.00000000000000	
12.18995300000000	60.77046000000000	781.74577799999997	50.51481500000000	0.31262100000000	0.00000000000000	0.09223100000000	0.00000000000000	0.00000000000000	0.00000000000000	0.00000000000000	0.00000000000000	0.00000000000000	0.00000000000000	19.55104700000000	0.00000000000000	0.00000000000000	0.00000000000000	0.00000000000000	
12.19162400000000	60.13636200000000	783.98729900000001	50.65942500000000	0.31180500000000	0.00000000000000	0.09222700000000	0.00000000000000	0.00000000000000	0.00000000000000	0.00000000000000	0.00000000000000	0.00000000000000	0.00000000000000	19.63165300000000	0.00000000000000	0.00000000000000	0.00000000000000	0.00000000000000	
12.19328500000000	59.50350200000000	786.09051299999999	50.80561100000000	0.31100900000000	0.00000000000000	0.09222300000000	0.00000000000000	0.00000000000000	0.00000000000000	0.00000000000000	0.00000000000000	0.00000000000000	0.00000000000000	19.71433600000000	0.00000000000000	0.00000000000000	0.00000000000000	0.00000000000000	
12.19495100000000	58.87175000000000	788.05243299999995	50.95275100000000	0.31022900000000	0.00000000000000	0.09222000000000	0.00000000000000	0.00000000000000	0.00000000000000	0.00000000000000	0.00000000000000	0.00000000000000	0.00000000000000	19.79868000000000	0.00000000000000	0.00000000000000	0.00000000000000	0.00000000000000	
12.19662200000000	58.24092700000000	789.87029099999995	51.10016000000000	0.30946300000000	0.00000000000000	0.09221700000000	0.00000000000000	0.00000000000000	0.00000000000000	0.00000000000000	0.00000000000000	0.00000000000000	0.00000000000000	19.88423100000000	0.00000000000000	0.00000000000000	0.00000000000000	0.00000000000000	
12.19828700000000	57.61080900000000	791.54155100000003	51.24709600000000	0.30870900000000	0.00000000000000	0.09221500000000	0.00000000000000	0.00000000000000	0.00000000000000	0.00000000000000	0.00000000000000	0.00000000000000	0.00000000000000	19.97050200000000	0.00000000000000	0.00000000000000	0.00000000000000	0.00000000000000	
12.19995900000000	56.98113800000000	793.06393200000002	51.39276500000000	0.30796400000000	0.00000000000000	0.09221400000000	0.00000000000000	0.00000000000000	0.00000000000000	0.00000000000000	0.00000000000000	0.00000000000000	0.00000000000000	20.05698000000000	0.00000000000000	0.00000000000000	0.00000000000000	0.00000000000000	
12.20161800000000	56.35162200000000	794.43541900000002	51.53632900000000	0.30722600000000	0.00000000000000	0.09221300000000	0.00000000000000	0.00000000000000	0.00000000000000	0.00000000000000	0.00000000000000	0.00000000000000	0.00000000000000	20.14312700000000	0.00000000000000	0.00000000000000	0.00000000000000	0.00000000000000	
12.20329000000000	55.72194300000000	795.65427899999997	51.67691500000000	0.30649100000000	0.00000000000000	0.09221300000000	0.00000000000000	0.00000000000000	0.00000000000000	0.00000000000000	0.00000000000000	0.00000000000000	0.00000000000000	20.22838200000000	0.00000000000000	0.00000000000000	0.00000000000000	0.00000000000000	
12.20495500000000	55.09176600000000	796.71907099999999	51.81361600000000	0.30575600000000	0.00000000000000	0.09221400000000	0.00000000000000	0.00000000000000	0.00000000000000	0.00000000000000	0.00000000000000	0.00000000000000	0.00000000000000	20.31217100000000	0.00000000000000	0.00000000000000	0.00000000000000	0.00000000000000	
12.20662600000000	54.46073900000000	797.62865899999997	51.94550600000000	0.30502000000000	0.00000000000000	0.09221600000000	0.00000000000000	0.00000000000000	0.00000000000000	0.00000000000000	0.00000000000000	0.00000000000000	0.00000000000000	20.39390500000000	0.00000000000000	0.00000000000000	0.00000000000000	0.00000000000000	
12.20828600000000	53.82850300000000	798.38222099999996	52.07164000000000	0.30427900000000	0.00000000000000	0.09221800000000	0.00000000000000	0.00000000000000	0.00000000000000	0.00000000000000	0.00000000000000	0.00000000000000	0.00000000000000	20.47298800000000	0.00000000000000	0.00000000000000	0.00000000000000	0.00000000000000	
12.20995600000000	53.19469700000000	798.97925599999996	52.19106700000000	0.30353100000000	0.00000000000000	0.09222200000000	0.00000000000000	0.00000000000000	0.00000000000000	0.00000000000000	0.00000000000000	0.00000000000000	0.00000000000000	20.54882100000000	0.00000000000000	0.00000000000000	0.00000000000000	0.00000000000000	
12.21161900000000	52.55896100000000	799.41959099999997	52.30283200000000	0.30277200000000	0.00000000000000	0.09222600000000	0.00000000000000	0.00000000000000	0.00000000000000	0.00000000000000	0.00000000000000	0.00000000000000	0.00000000000000	20.62080300000000	0.00000000000000	0.00000000000000	0.00000000000000	0.00000000000000	
12.21328400000000	51.92094500000000	799.70338700000002	52.40598800000000	0.30200100000000	0.00000000000000	0.09223200000000	0.00000000000000	0.00000000000000	0.00000000000000	0.00000000000000	0.00000000000000	0.00000000000000	0.00000000000000	20.68834100000000	0.00000000000000	0.00000000000000	0.00000000000000	0.00000000000000	
12.21495900000000	51.28030900000000	799.83114000000000	52.49959900000000	0.30121500000000	0.00000000000000	0.09223800000000	0.00000000000000	0.00000000000000	0.00000000000000	0.00000000000000	0.00000000000000	0.00000000000000	0.00000000000000	20.75084900000000	0.00000000000000	0.00000000000000	0.00000000000000	0.00000000000000	
12.21662500000000	50.63673300000000	799.80368399999998	52.58275100000000	0.30041000000000	0.00000000000000	0.09224500000000	0.00000000000000	0.00000000000000	0.00000000000000	0.00000000000000	0.00000000000000	0.00000000000000	0.00000000000000	20.80775300000000	0.00000000000000	0.00000000000000	0.00000000000000	0.00000000000000	
12.21828800000000	49.98991900000000	799.62218800000005	52.65455300000000	0.29958600000000	0.00000000000000	0.09225400000000	0.00000000000000	0.00000000000000	0.00000000000000	0.00000000000000	0.00000000000000	0.00000000000000	0.00000000000000	20.85850000000000	0.00000000000000	0.00000000000000	0.00000000000000	0.00000000000000	
12.21996800000000	49.33959500000000	799.28816099999995	52.71414800000000	0.29873800000000	0.00000000000000	0.09226300000000	0.00000000000000	0.00000000000000	0.00000000000000	0.00000000000000	0.00000000000000	0.00000000000000	0.00000000000000	20.90255400000000	0.00000000000000	0.00000000000000	0.00000000000000	0.00000000000000	
12.22162800000000	48.68551600000000	798.80344300000002	52.76071800000000	0.29786600000000	0.00000000000000	0.09227400000000	0.00000000000000	0.00000000000000	0.00000000000000	0.00000000000000	0.00000000000000	0.00000000000000	0.00000000000000	20.93940600000000	0.00000000000000	0.00000000000000	0.00000000000000	0.00000000000000	
12.22329200000000	48.02747600000000	798.17020300000001	52.79348900000000	0.29696800000000	0.00000000000000	0.09228500000000	0.00000000000000	0.00000000000000	0.00000000000000	0.00000000000000	0.00000000000000	0.00000000000000	0.00000000000000	20.96857700000000	0.00000000000000	0.00000000000000	0.00000000000000	0.00000000000000	
12.22495800000000	47.36530000000000	797.39093200000002	52.81173500000000	0.29604000000000	0.00000000000000	0.09229800000000	0.00000000000000	0.00000000000000	0.00000000000000	0.00000000000000	0.00000000000000	0.00000000000000	0.00000000000000	20.98961800000000	0.00000000000000	0.00000000000000	0.00000000000000	0.00000000000000	
12.22661900000000	46.69885600000000	796.46843799999999	52.81478700000000	0.29508200000000	0.00000000000000	0.09231200000000	0.00000000000000	0.00000000000000	0.00000000000000	0.00000000000000	0.00000000000000	0.00000000000000	0.00000000000000	21.00211700000000	0.00000000000000	0.00000000000000	0.00000000000000	0.00000000000000	
12.22829200000000	46.02805100000000	795.40583600000002	52.80203300000000	0.29409100000000	0.00000000000000	0.09232600000000	0.00000000000000	0.00000000000000	0.00000000000000	0.00000000000000	0.00000000000000	0.00000000000000	0.00000000000000	21.00569800000000	0.00000000000000	0.00000000000000	0.00000000000000	0.00000000000000	
12.22995300000000	45.35283800000000	794.20653900000002	52.77292500000000	0.29306700000000	0.00000000000000	0.09234200000000	0.00000000000000	0.00000000000000	0.00000000000000	0.00000000000000	0.00000000000000	0.00000000000000	0.00000000000000	21.00002800000000	0.00000000000000	0.00000000000000	0.00000000000000	0.00000000000000	
12.23163800000000	44.67321300000000	792.87424499999997	52.72698400000000	0.29200700000000	0.00000000000000	0.09235900000000	0.00000000000000	0.00000000000000	0.00000000000000	0.00000000000000	0.00000000000000	0.00000000000000	0.00000000000000	20.98481800000000	0.00000000000000	0.00000000000000	0.00000000000000	0.00000000000000	
12.23328500000000	43.98922000000000	791.41293099999996	52.66379900000000	0.29091100000000	0.00000000000000	0.09237600000000	0.00000000000000	0.00000000000000	0.00000000000000	0.00000000000000	0.00000000000000	0.00000000000000	0.00000000000000	20.95982300000000	0.00000000000000	0.00000000000000	0.00000000000000	0.00000000000000	
12.23495100000000	43.30094800000000	789.82683199999997	52.58303300000000	0.28977800000000	0.00000000000000	0.09239500000000	0.00000000000000	0.00000000000000	0.00000000000000	0.00000000000000	0.00000000000000	0.00000000000000	0.00000000000000	20.92484500000000	0.00000000000000	0.00000000000000	0.00000000000000	0.00000000000000	
12.23663100000000	42.60853700000000	788.12043400000005	52.48442400000000	0.28860700000000	0.00000000000000	0.09241400000000	0.00000000000000	0.00000000000000	0.00000000000000	0.00000000000000	0.00000000000000	0.00000000000000	0.00000000000000	20.87973600000000	0.00000000000000	0.00000000000000	0.00000000000000	0.00000000000000	
12.23828800000000	41.91217000000000	786.29845599999999	52.36778600000000	0.28739800000000	0.00000000000000	0.09243500000000	0.00000000000000	0.00000000000000	0.00000000000000	0.00000000000000	0.00000000000000	0.00000000000000	0.00000000000000	20.82439600000000	0.00000000000000	0.00000000000000	0.00000000000000	0.00000000000000	
12.23995300000000	41.21208100000000	784.36583800000005	52.23301400000000	0.28615000000000	0.00000000000000	0.09245600000000	0.00000000000000	0.00000000000000	0.00000000000000	0.00000000000000	0.00000000000000	0.00000000000000	0.00000000000000	20.75877700000000	0.00000000000000	0.00000000000000	0.00000000000000	0.00000000000000	
12.24161800000000	40.50855000000000	782.32772100000000	52.08007900000000	0.28486200000000	0.00000000000000	0.09247800000000	0.00000000000000	0.00000000000000	0.00000000000000	0.00000000000000	0.00000000000000	0.00000000000000	0.00000000000000	20.68288000000000	0.00000000000000	0.00000000000000	0.00000000000000	0.00000000000000	
12.24329200000000	39.80190000000000	780.18943200000001	51.90903400000000	0.28353600000000	0.00000000000000	0.09250000000000	0.00000000000000	0.00000000000000	0.00000000000000	0.00000000000000	0.00000000000000	0.00000000000000	0.00000000000000	20.59675700000000	0.00000000000000	0.00000000000000	0.00000000000000	0.00000000000000	
